<svg id="Laag_1" data-name="Laag 1" xmlns="http://www.w3.org/2000/svg" xmlns:xlink="http://www.w3.org/1999/xlink" viewBox="0 0 48 48"><defs><style>.cls-1{fill:url(#New_Gradient_Swatch_2);}.cls-2{fill:#55a6c3;}.cls-3{fill:#4b4a4b;}.cls-4{fill:#fff;}.cls-5{fill:url(#linear-gradient);}.cls-6{fill:url(#New_Gradient_Swatch_1);}</style><linearGradient id="New_Gradient_Swatch_2" x1="6.11" y1="22.05" x2="30.34" y2="22.05" gradientUnits="userSpaceOnUse"><stop offset="0" stop-color="#55a6c3"/><stop offset="1" stop-color="#4ab8a7"/></linearGradient><linearGradient id="linear-gradient" x1="1.28" y1="16.89" x2="15.78" y2="16.89" gradientUnits="userSpaceOnUse"><stop offset="0" stop-color="#e94a5e"/><stop offset="1" stop-color="#f6a43b"/></linearGradient><linearGradient id="New_Gradient_Swatch_1" x1="30.94" y1="20.86" x2="44.82" y2="20.86" gradientUnits="userSpaceOnUse"><stop offset="0" stop-color="#f6a43b"/><stop offset="1" stop-color="#e94a5e"/></linearGradient></defs><title>IDT</title><path class="cls-1" d="M6.11,25.27V18.83H7.18v6.44Zm2,0V18.83H9.2l1.35,4v-4h1v6.44h-1L9.11,21.08v4.19Zm6.33-4.14v-.9a.55.55,0,1,0-1.09,0v.44a.64.64,0,0,0,.41.65l.76.43c.62.35,1,.63,1,1.32V24c0,1-.61,1.34-1.59,1.34h0c-1,0-1.59-.34-1.59-1.34V22.88h1v1a.55.55,0,1,0,1.1,0v-.5a.65.65,0,0,0-.42-.67l-.74-.43c-.63-.36-1-.65-1-1.32v-.85c0-1,.7-1.33,1.58-1.33h0c.89,0,1.59.37,1.59,1.33v1.05Zm4.65-1.36H18v5.5H17v-5.5H15.89v-.94h3.22Zm2.2,4.07H20.14l-.23,1.43h-1l1.19-6.44h1.35l1.21,6.44H21.54Zm1.85,1.43V18.83h1.07l1.36,4v-4h1v6.44h-1l-1.41-4.19v4.19Zm7.18-5.5H29.26v5.5H28.19v-5.5H27.11v-.94h3.23Z"/><path class="cls-2" d="M9.34,27.54v3.72c0,1-.65,1.36-1.62,1.36H6.07V26.18H7.72C8.69,26.18,9.34,26.57,9.34,27.54Zm-1.66-.42H7.14v4.56h.54c.35,0,.59-.12.59-.58V27.71C8.27,27.25,8,27.12,7.68,27.12Z"/><path class="cls-2" d="M10.22,32.62V26.18h2.83v.94H11.29v1.77h1.47v.94H11.29v1.85h1.79v.94Z"/><path class="cls-2" d="M15.78,28.48v-.9a.54.54,0,1,0-1.08,0V28a.64.64,0,0,0,.41.65l.75.43c.62.35,1,.63,1,1.32v.93c0,1-.62,1.35-1.59,1.35h0c-1,0-1.59-.34-1.59-1.35V30.23h1v1a.55.55,0,1,0,1.1,0V30.7a.65.65,0,0,0-.42-.67l-.75-.43c-.62-.35-1-.65-1-1.32v-.85c0-1,.7-1.32,1.58-1.32h0c.88,0,1.58.36,1.58,1.32v1.05Z"/><path class="cls-2" d="M17.66,32.62V26.18h1.07v6.44Z"/><path class="cls-2" d="M23,31.33c0,1-.64,1.37-1.62,1.37h-.07c-1,0-1.62-.36-1.62-1.37V27.47c0-1,.64-1.36,1.62-1.36h.07c1,0,1.62.4,1.62,1.36v.92H21.89v-.76c0-.46-.24-.58-.58-.58s-.59.12-.59.58v3.54c0,.46.24.59.59.59s.58-.13.58-.59v-1h-.62v-.9H23Z"/><path class="cls-2" d="M23.83,32.62V26.18H24.9l1.35,4v-4h1v6.44h-1L24.8,28.44v4.18Z"/><path class="cls-2" d="M32.47,27.12H31.39v5.5H30.33v-5.5H29.25v-.94h3.22Z"/><path class="cls-2" d="M34.57,26.11h.07c1,0,1.62.38,1.62,1.36v3.86c0,1-.64,1.37-1.62,1.37h-.07c-1,0-1.62-.39-1.62-1.37V27.47C33,26.48,33.59,26.11,34.57,26.11Zm0,5.65c.35,0,.59-.13.59-.59V27.63c0-.46-.24-.58-.59-.58s-.59.12-.59.58v3.54C34,31.63,34.26,31.76,34.61,31.76Z"/><path class="cls-2" d="M38.73,26.11h.07c1,0,1.62.38,1.62,1.36v3.86c0,1-.64,1.37-1.62,1.37h-.07c-1,0-1.62-.39-1.62-1.37V27.47C37.11,26.48,37.76,26.11,38.73,26.11Zm0,5.65c.35,0,.59-.13.59-.59V27.63c0-.46-.24-.58-.59-.58s-.59.12-.59.58v3.54C38.18,31.63,38.42,31.76,38.77,31.76Z"/><path class="cls-2" d="M44,32.62H41.31V26.18h1.07v5.49H44Z"/><path class="cls-3" d="M46.07,28.62h0a.21.21,0,0,1-.12-.07l-5.25-7a.38.38,0,0,1,.08-.54l.14-.11a.4.4,0,0,1,.23-.08.38.38,0,0,1,.31.16l5.26,7a.19.19,0,0,1,0,.26l-.47.35A.15.15,0,0,1,46.07,28.62Z"/><path class="cls-4" d="M41.91,21.94l-.47.36-.62-.84a.19.19,0,0,1,0-.28l.14-.11a.21.21,0,0,1,.29,0Z"/><path class="cls-5" d="M4,17.2a0,0,0,0,1,0,0s0,0,0,0l.23.33s0,0,0,0l.4-.11a0,0,0,0,1,0,.07l-.25.32a0,0,0,0,0,0,.05l.23.34a0,0,0,0,1,0,.07l-.39-.14s0,0,0,0L4,18.46s-.08,0-.08,0l0-.41a.05.05,0,0,0,0,0l-.38-.14a0,0,0,0,1,0-.08l.39-.11s0,0,0,0l0-.41m11.5.07-.23.21s0,0-.05,0l-.28-.15s-.08,0-.06.05l.13.29s0,0,0,.05l-.23.22s0,.08,0,.07l.32,0a0,0,0,0,1,0,0l.13.29a0,0,0,0,0,.08,0l.06-.31s0,0,0,0l.32,0s.05-.06,0-.08l-.28-.15a.08.08,0,0,1,0-.05l.06-.31a0,0,0,0,0,0,0s0,0,0,0m-2.66-1.41-.19.3s0,0,0,0l-.35-.08a0,0,0,0,0,0,.08l.23.27a0,0,0,0,1,0,.05l-.19.3a.05.05,0,0,0,.06.07l.33-.14s0,0,.05,0l.23.27A0,0,0,0,0,13,17l0-.36a0,0,0,0,1,0-.05l.33-.14a0,0,0,0,0,0-.08l-.34-.08a0,0,0,0,1,0,0l0-.35a0,0,0,0,0,0,0s0,0,0,0M2,15.45,1.9,16a0,0,0,0,1,0,0l-.54.14a.05.05,0,0,0,0,.1l.52.21a.05.05,0,0,1,0,0l0,.56c0,.06.06.08.09,0l.37-.43a.06.06,0,0,1,.06,0l.52.21a0,0,0,0,0,.06-.07l-.29-.48a.09.09,0,0,1,0-.07L3,15.88s0-.09-.06-.08l-.54.13a0,0,0,0,1-.06,0L2,15.43s0,0,0,0a0,0,0,0,0-.05,0m4.11.3L6,16.08a.08.08,0,0,1,0,0l-.33,0a0,0,0,0,0,0,.08l.29.16a0,0,0,0,1,0,.05l-.06.32a0,0,0,0,0,.07,0l.25-.22s0,0,.05,0l.29.16s.08,0,.06,0l-.14-.31s0,0,0-.05l.24-.22a0,0,0,0,0,0-.08l-.33,0,0,0-.14-.31,0,0s0,0,0,0m3.87-.45-.06,0-.48.57a.05.05,0,0,1-.07,0l-.7-.28a.07.07,0,0,0-.08.1l.4.63a.08.08,0,0,1,0,.08L8.45,17a.06.06,0,0,0,.07.1L9.25,17a.05.05,0,0,1,.07,0l.4.63a.06.06,0,0,0,.12,0l.05-.75a.07.07,0,0,1,0-.06l.73-.18a.06.06,0,0,0,0-.12l-.7-.28a.07.07,0,0,1,0-.07l.05-.75a.07.07,0,0,0-.06-.07Z"/><path class="cls-6" d="M39,18l.12.32a.05.05,0,0,0,0,0l.34,0s.06,0,0,.07l-.27.22a.07.07,0,0,0,0,.05l.13.32s0,.07-.06.05L39,18.89a0,0,0,0,0-.05,0l-.27.22s-.07,0-.06,0l.08-.34s0,0,0,0l-.29-.19a0,0,0,0,1,0-.07l.35,0s0,0,0,0l.09-.33A0,0,0,0,1,39,18Zm-7.6,5.91,0,.34s0,0,0,0l-.33.09s0,.06,0,.08l.32.12s0,0,0,0V25s0,.06.07,0l.22-.27a0,0,0,0,1,0,0l.33.12s.07,0,0-.06l-.19-.29a0,0,0,0,1,0-.05L32,24.2a0,0,0,0,0,0-.06l-.34.09,0,0-.19-.29S31.36,23.9,31.35,23.94Zm13.46-2.79-.3-.41a.06.06,0,0,1,0-.06l.3-.41s0-.1-.05-.08l-.49.15a0,0,0,0,1-.05,0l-.3-.41a0,0,0,0,0-.09,0v.51a.05.05,0,0,1,0,.05l-.49.15a.06.06,0,0,0,0,.1l.49.16a.05.05,0,0,1,0,.05v.51a0,0,0,0,0,.09,0l.3-.41s0,0,.06,0l.48.16A.05.05,0,0,0,44.81,21.15Zm-2.05-3.52v-.87a.08.08,0,0,0-.15-.05l-.51.71a.09.09,0,0,1-.1,0l-.83-.27a.08.08,0,0,0-.09.13l.52.7a.09.09,0,0,1,0,.1l-.51.71a.08.08,0,0,0,.09.13l.83-.28a.08.08,0,0,1,.09,0l.52.71a.08.08,0,0,0,.15-.05v-.88a.09.09,0,0,1,.06-.07l.83-.28a.08.08,0,0,0,0-.15l-.83-.27A.08.08,0,0,1,42.76,17.63Zm-3.69,3.16-.78.28a.08.08,0,0,1-.09,0l-.5-.66a.09.09,0,0,0-.15.06l0,.82a.08.08,0,0,1,0,.08l-.78.28a.08.08,0,0,0,0,.16l.79.23a.08.08,0,0,1,.06.08l0,.82a.08.08,0,0,0,.15.05l.46-.68a.09.09,0,0,1,.09,0l.8.24a.09.09,0,0,0,.09-.13l-.51-.66a.09.09,0,0,1,0-.1l.47-.68A.08.08,0,0,0,39.07,20.79Zm-2.26-2.51.11-.59a.06.06,0,0,0-.1-.06l-.44.42a.06.06,0,0,1-.07,0l-.53-.29c-.06,0-.12,0-.09.08l.26.55a.06.06,0,0,1,0,.07l-.44.42a.06.06,0,0,0,0,.1l.6-.08a.05.05,0,0,1,.06,0l.27.55a.06.06,0,0,0,.11,0l.11-.6a.1.1,0,0,1,.06-.05l.6-.08c.06,0,.07-.08,0-.11l-.53-.29A.07.07,0,0,1,36.81,18.28Zm-2.53,4.87-.08-.47c0-.06-.09-.08-.11,0l-.22.43s0,0-.07,0l-.48-.07a.06.06,0,0,0,0,.1l.34.34a.06.06,0,0,1,0,.08L33.4,24a.06.06,0,0,0,.09.08l.43-.22a.06.06,0,0,1,.07,0l.34.34a.06.06,0,0,0,.11-.05l-.08-.48a.07.07,0,0,1,0-.06l.44-.22a.07.07,0,0,0,0-.12l-.48-.07A.06.06,0,0,1,34.28,23.15ZM34.74,21l-.3-.22s-.08,0-.07.05l.11.36a0,0,0,0,1,0,.05l-.31.22a0,0,0,0,0,0,.08h.37a.05.05,0,0,1,0,0l.11.35a0,0,0,0,0,.09,0l.12-.35s0,0,0,0h.38a0,0,0,0,0,0-.08l-.3-.22a.07.07,0,0,1,0-.06l.12-.35a.05.05,0,0,0-.08-.05l-.3.21A.06.06,0,0,1,34.74,21Z"/><path class="cls-4" d="M21.08,21.53l0,.51a.05.05,0,0,0,0,.05l.48.19a.05.05,0,0,1,0,.1l-.51.14a.07.07,0,0,0,0,.05l0,.51a0,0,0,0,1-.09,0l-.28-.43s0,0-.06,0l-.49.13a.05.05,0,0,1-.06-.08l.33-.41a0,0,0,0,0,0-.06l-.28-.44a.05.05,0,0,1,.06-.08l.48.19a0,0,0,0,0,.06,0L21,21.5S21.08,21.48,21.08,21.53Z"/></svg>